# xmcd
#
# Track frame offsets: 
#        150
#        42114
#        52253
#        54729
#        61157
#        85872
#        90311
#        104890
#        121041
#        129365
#        145643
#        157001
#
# Disc length: 2520 seconds
#
# Revision: 5
# Processed by: cddbd v1.5.2PL0 Copyright (c) Steve Scherf et al.
# Submitted via: ExactAudioCopyFreeDBPlugin 1.0
#
DISCID=9f09d60c
DTITLE=Soft Machine - The Harvest Albums 1975-1978 [CD ONE (Bundles) (
DTITLE=EU-UK ECLEC 32682)
DYEAR=2019
DGENRE=Jazz-Fusion
TTITLE0=Hazard Profile Part One
TTITLE1=Hazard Profile Part Two (Toccatina)
TTITLE2=Hazard Profile Part Three
TTITLE3=Hazard Profile Part Four
TTITLE4=Hazard Profile Part Five
TTITLE5=Gone Sailing
TTITLE6=Bundles
TTITLE7=Land Of The Bag Snake
TTITLE8=The Man Who Waved At Trains
TTITLE9=Peff
TTITLE10=Four Gongs Two Drums
TTITLE11=The Floating World
EXTD=YEAR: 1975
EXTT0=
EXTT1=
EXTT2=
EXTT3=
EXTT4=
EXTT5=
EXTT6=
EXTT7=
EXTT8=
EXTT9=
EXTT10=
EXTT11=
PLAYORDER=
